<svg width="62" height="312" viewBox="0 0 62 312" fill="none" xmlns="http://www.w3.org/2000/svg">
<path d="M61 286C61 286 49.9281 291.534 46.3693 295.534C42.8104 299.534 38.0654 307.034 38.0654 307.034L11.1765 307.034C11.1765 307.034 10.6955 302.201 8.01307 296.5M8.01307 296.5C5.83578 291.873 0.499994 285 0.499994 285L8.01307 296.5Z" stroke="white"/>
<path d="M38 311L38 308L11.5 308L11.5 311L38 311Z" fill="white" stroke="white"/>
<path d="M60.6046 286.582C61.3954 285.582 18.2941 8.58175 18.2941 8.58175C18.2941 8.58175 14.7353 0.0817529 9.59475 1.08175C4.45423 2.08175 0.895406 8.58175 0.895406 8.58175C0.895406 8.58175 0.895418 285.082 0.895418 286.582" stroke="white"/>
</svg>
