<svg id="visual" viewBox="0 0 960 540" width="960" height="540" xmlns="http://www.w3.org/2000/svg" xmlns:xlink="http://www.w3.org/1999/xlink" version="1.1"><path d="M0 71L87 66L175 93L262 28L349 77L436 55L524 39L611 55L698 39L785 60L873 33L960 44L960 0L873 0L785 0L698 0L611 0L524 0L436 0L349 0L262 0L175 0L87 0L0 0Z" fill="#002646"></path><path d="M0 120L87 104L175 120L262 77L349 109L436 98L524 55L611 71L698 71L785 87L873 60L960 66L960 42L873 31L785 58L698 37L611 53L524 37L436 53L349 75L262 26L175 91L87 64L0 69Z" fill="#012949"></path><path d="M0 255L87 179L175 217L262 239L349 206L436 244L524 158L611 217L698 120L785 201L873 195L960 195L960 64L873 58L785 85L698 69L611 69L524 53L436 96L349 107L262 75L175 118L87 102L0 118Z" fill="#032c4d"></path><path d="M0 287L87 239L175 244L262 287L349 266L436 276L524 222L611 266L698 185L785 249L873 228L960 244L960 193L873 193L785 199L698 118L611 215L524 156L436 242L349 204L262 237L175 215L87 177L0 253Z" fill="#042f50"></path><path d="M0 341L87 379L175 379L262 406L349 357L436 379L524 401L611 357L698 341L785 384L873 363L960 336L960 242L873 226L785 247L698 183L611 264L524 220L436 274L349 264L262 285L175 242L87 237L0 285Z" fill="#063154"></path><path d="M0 444L87 449L175 460L262 444L349 449L436 465L524 476L611 482L698 433L785 433L873 433L960 444L960 334L873 361L785 382L698 339L611 355L524 399L436 377L349 355L262 404L175 377L87 377L0 339Z" fill="#083458"></path><path d="M0 498L87 498L175 498L262 482L349 498L436 482L524 509L611 509L698 482L785 482L873 476L960 498L960 442L873 431L785 431L698 431L611 480L524 474L436 463L349 447L262 442L175 458L87 447L0 442Z" fill="#0a375b"></path><path d="M0 541L87 541L175 541L262 541L349 541L436 541L524 541L611 541L698 541L785 541L873 541L960 541L960 496L873 474L785 480L698 480L611 507L524 507L436 480L349 496L262 480L175 496L87 496L0 496Z" fill="#0c3a5f"></path></svg>