<?xml version="1.0" encoding="UTF-8"?><svg id="All_work" xmlns="http://www.w3.org/2000/svg" viewBox="0 0 353.29 285.54"><defs><style>.cls-1{fill:#fff;stroke-width:0px;}</style></defs><path class="cls-1" d="m349.78,71.06c-5.21-12.58-15.72-22.27-31.22-28.81-8.65-3.64-18.62-6.19-29.8-7.64,4.82,4.99,9.3,10.31,13.43,15.9,18.12,4.81,30.53,13.56,35.5,25.55,7.3,17.63-1.93,42.15-25.32,67.29-24.96,26.82-62.82,51.58-106.6,69.71-41.05,17-82.53,26.21-117.72,26.21-2.34,0-4.66-.04-6.95-.12-34.32-1.23-58.19-12.05-65.49-29.68-4.96-11.97-2.39-26.9,6.98-43.08-1.04-6.78-1.64-13.7-1.77-20.74-6.84,8.9-12.07,17.72-15.6,26.38-6.34,15.58-6.92,29.86-1.71,42.44,9.48,22.9,36.87,36.3,77.11,37.75,1.52.05,3.06.09,4.61.11,24.78,20.71,56.66,33.2,91.41,33.2,74.42,0,135.71-57.24,142.19-130.01,1.05-1.08,2.1-2.17,3.11-3.26,27.43-29.48,37.32-58.32,27.83-81.21Zm-173.13,201.39c-25.94,0-50.11-7.66-70.4-20.83,32.54-2.55,68.76-11.65,104.53-26.47,35.79-14.83,67.87-34.02,92.69-55.25-12.51,58.52-64.61,102.55-126.81,102.55Z"/><path class="cls-1" d="m176.65,0C97.93,0,33.88,64.05,33.88,142.77c0,29.88,9.23,57.64,24.99,80.59,5.56,1.21,11.69,2.05,18.28,2.48-4.22-5.05-8.06-10.42-11.49-16.07l17.24-9.08c4.87,5.41,11.91,8.82,19.73,8.85l3.92,15.79c4.3-.38,8.67-.89,13.11-1.52l-4.33-17.43c3.65-1.96,6.79-4.75,9.18-8.11l40.16,15.53c6.5-1.94,13.04-4.09,19.59-6.45l-55.02-21.28c.06-.52.11-1.05.15-1.58l77.26-14.51c2.65,5.18,7.2,9.24,12.72,11.26l-.74,11.79c4.61-2.19,9.12-4.45,13.54-6.78l.26-4.19c7.62-1.73,13.83-7.22,16.56-14.4l12.84.97c5.75-3.86,11.23-7.82,16.41-11.88l-28.26-2.14c-1.45-6.79-5.88-12.49-11.85-15.65l6.23-30.7c8.08-.56,15.09-5.03,19.15-11.53l38.08,11.38c2.06,7.42,3.49,15.11,4.19,23,4.36-4.97,8.1-9.91,11.17-14.7C304.56,50.23,246.37,0,176.65,0Zm60.42,28.05l-.81,31.94c-4.32,1.17-8.17,3.48-11.2,6.6l-45.71-25.12c.14-.94.22-1.9.22-2.87,0-1.38-.15-2.72-.43-4.02l28.2-17.83c10.47,2.55,20.43,6.38,29.74,11.3Zm-76.28,60.52c8.62,0,15.62,7.01,15.62,15.62s-7.01,15.63-15.62,15.63-15.62-7.01-15.62-15.63,7.01-15.62,15.62-15.62Zm-27.73,8.2l-25.59-.81c-.27-1-.61-1.97-1.01-2.9l44.68-37.92c.92.52,1.88.97,2.88,1.34l.13,19.78c-10.25,2.43-18.38,10.37-21.1,20.51Zm21.53-58.18c0-3.28,2.67-5.95,5.95-5.95s5.95,2.67,5.95,5.95-2.67,5.95-5.95,5.95-5.95-2.67-5.95-5.95Zm12.66,37.63l-.13-19.77c2.19-.81,4.19-2.02,5.92-3.53l45.72,25.12c-.39,1.63-.61,3.33-.65,5.07l-31.78,7.95c-3.82-7.4-10.76-12.93-19.07-14.84Zm9.4-63.14c3.78,0,7.52.17,11.22.49l-15.73,9.95c-3.21-2.48-7.24-3.96-11.6-3.96-5.38,0-10.24,2.25-13.7,5.84l-12.14-5.35c13.17-4.51,27.28-6.97,41.96-6.97Zm-58.51,13.97l23.4,10.32c-.03.4-.04.81-.04,1.22,0,2.31.41,4.53,1.17,6.58l-44.68,37.92c-3.33-2.13-7.25-3.39-11.46-3.47l-6.66-23.07c10.76-12.06,23.73-22.11,38.27-29.5Zm-32.04,65.65c5,0,9.06,4.06,9.06,9.06s-4.06,9.06-9.06,9.06-9.06-4.06-9.06-9.06,4.06-9.06,9.06-9.06Zm-16.2-23.48l4.05,14.04c-5.52,3.64-9.33,9.68-9.91,16.63l-10.56,2.31c3.91-11.83,9.47-22.92,16.43-32.98Zm-20.24,47.21l16.45-3.6-18.94,22.7c.36-6.51,1.2-12.88,2.48-19.1Zm26.38,66.4c0,2.16.26,4.26.75,6.28l-17.34,9.14c-6.27-13.2-10.38-27.61-11.86-42.79l28.38-34.01c1.94,1,4.04,1.72,6.26,2.12l8.28,35.54c-8.58,4.45-14.46,13.41-14.46,23.72Zm26.71,13.62c-7.51,0-13.62-6.11-13.62-13.62s6.11-13.62,13.62-13.62,13.62,6.11,13.62,13.62-6.11,13.62-13.62,13.62Zm10.11-38.33c-2.97-1.22-6.21-1.92-9.61-1.98l-7.97-34.23c5.46-2.5,9.74-7.15,11.73-12.87l25.63.81c.98,4.87,3.19,9.29,6.29,12.93l-26.08,35.33Zm91.38-1.01l-77.26,14.51c-.96-2.06-2.17-3.99-3.6-5.73l26.07-35.32c3.48,1.5,7.31,2.34,11.34,2.34,6.5,0,12.5-2.17,17.32-5.83l27.91,23.18c-.93,2.14-1.54,4.44-1.78,6.85Zm-17.76-40.1c1.94-3.86,3.03-8.21,3.03-12.82,0-.15,0-.29-.01-.43l31.78-7.95c2.38,4.2,5.96,7.62,10.27,9.82l-6.23,30.7c-4.02.34-7.76,1.71-10.94,3.86l-27.91-23.18Zm40.84,52.52c-5.57,0-10.1-4.53-10.1-10.1s4.53-10.1,10.1-10.1,10.1,4.53,10.1,10.1-4.53,10.1-10.1,10.1Zm15.35-74.32c-6.34,0-11.5-5.16-11.5-11.5s5.16-11.5,11.5-11.5,11.5,5.16,11.5,11.5-5.16,11.5-11.5,11.5Zm24.57-11.05c0-.15.01-.3.01-.45,0-11.24-7.58-20.73-17.9-23.65l.61-24.21c20.42,14.05,36.63,33.78,46.33,56.9l-29.05-8.59Z"/></svg>